<mxfile host="app.diagrams.net" modified="2023-12-13T16:10:36.847Z" agent="Mozilla/5.0 (Windows NT 10.0; Win64; x64) AppleWebKit/537.36 (KHTML, like Gecko) Chrome/120.0.0.0 Safari/537.36" etag="idnoCBZnKqNVB1L0JZSJ" version="22.1.8" type="google">
  <diagram name="Страница — 1" id="jOxiyzoaJ8vQ9IuZyVAQ">
    <mxGraphModel grid="1" page="1" gridSize="10" guides="1" tooltips="1" connect="1" arrows="1" fold="1" pageScale="1" pageWidth="827" pageHeight="1169" math="0" shadow="0">
      <root>
        <mxCell id="0" />
        <mxCell id="1" parent="0" />
        <mxCell id="u0k0_SDsONShJAMM6Eyq-3" style="edgeStyle=orthogonalEdgeStyle;rounded=0;orthogonalLoop=1;jettySize=auto;html=1;exitX=1;exitY=0.5;exitDx=0;exitDy=0;" edge="1" parent="1" source="u0k0_SDsONShJAMM6Eyq-1" target="u0k0_SDsONShJAMM6Eyq-2">
          <mxGeometry relative="1" as="geometry" />
        </mxCell>
        <mxCell id="u0k0_SDsONShJAMM6Eyq-1" value="Старт" style="ellipse;whiteSpace=wrap;html=1;aspect=fixed;" vertex="1" parent="1">
          <mxGeometry x="80" y="150" width="60" height="60" as="geometry" />
        </mxCell>
        <mxCell id="u0k0_SDsONShJAMM6Eyq-6" style="edgeStyle=orthogonalEdgeStyle;rounded=0;orthogonalLoop=1;jettySize=auto;html=1;entryX=0.5;entryY=0;entryDx=0;entryDy=0;" edge="1" parent="1" source="u0k0_SDsONShJAMM6Eyq-2" target="u0k0_SDsONShJAMM6Eyq-5">
          <mxGeometry relative="1" as="geometry" />
        </mxCell>
        <mxCell id="u0k0_SDsONShJAMM6Eyq-2" value="Приветствие + описание" style="rounded=1;whiteSpace=wrap;html=1;" vertex="1" parent="1">
          <mxGeometry x="220" y="150" width="120" height="60" as="geometry" />
        </mxCell>
        <mxCell id="u0k0_SDsONShJAMM6Eyq-4" value="/start" style="text;html=1;strokeColor=none;fillColor=none;align=center;verticalAlign=middle;whiteSpace=wrap;rounded=0;" vertex="1" parent="1">
          <mxGeometry x="149" y="155" width="60" height="30" as="geometry" />
        </mxCell>
        <mxCell id="u0k0_SDsONShJAMM6Eyq-9" style="edgeStyle=orthogonalEdgeStyle;rounded=0;orthogonalLoop=1;jettySize=auto;html=1;exitX=0.5;exitY=1;exitDx=0;exitDy=0;" edge="1" parent="1" source="fVKg-VJLoNKtg5UL30Xo-1" target="u0k0_SDsONShJAMM6Eyq-14">
          <mxGeometry relative="1" as="geometry">
            <mxPoint x="280" y="430" as="targetPoint" />
          </mxGeometry>
        </mxCell>
        <mxCell id="fVKg-VJLoNKtg5UL30Xo-3" style="edgeStyle=orthogonalEdgeStyle;rounded=0;orthogonalLoop=1;jettySize=auto;html=1;exitX=0.5;exitY=1;exitDx=0;exitDy=0;" edge="1" parent="1" source="fVKg-VJLoNKtg5UL30Xo-4" target="fVKg-VJLoNKtg5UL30Xo-1">
          <mxGeometry relative="1" as="geometry" />
        </mxCell>
        <mxCell id="fVKg-VJLoNKtg5UL30Xo-5" style="edgeStyle=orthogonalEdgeStyle;rounded=0;orthogonalLoop=1;jettySize=auto;html=1;entryX=0.5;entryY=0;entryDx=0;entryDy=0;" edge="1" parent="1" source="u0k0_SDsONShJAMM6Eyq-5" target="fVKg-VJLoNKtg5UL30Xo-4">
          <mxGeometry relative="1" as="geometry" />
        </mxCell>
        <mxCell id="u0k0_SDsONShJAMM6Eyq-5" value="Показать календарь" style="rounded=1;whiteSpace=wrap;html=1;" vertex="1" parent="1">
          <mxGeometry x="220" y="270" width="120" height="60" as="geometry" />
        </mxCell>
        <mxCell id="u0k0_SDsONShJAMM6Eyq-22" style="edgeStyle=orthogonalEdgeStyle;rounded=0;orthogonalLoop=1;jettySize=auto;html=1;entryX=0;entryY=0.5;entryDx=0;entryDy=0;exitX=0;exitY=0.5;exitDx=0;exitDy=0;" edge="1" parent="1" source="u0k0_SDsONShJAMM6Eyq-14" target="u0k0_SDsONShJAMM6Eyq-5">
          <mxGeometry relative="1" as="geometry">
            <Array as="points">
              <mxPoint x="20" y="650" />
              <mxPoint x="20" y="300" />
            </Array>
          </mxGeometry>
        </mxCell>
        <mxCell id="fVKg-VJLoNKtg5UL30Xo-12" style="edgeStyle=orthogonalEdgeStyle;rounded=0;orthogonalLoop=1;jettySize=auto;html=1;entryX=0;entryY=0.5;entryDx=0;entryDy=0;" edge="1" parent="1" source="u0k0_SDsONShJAMM6Eyq-14" target="fVKg-VJLoNKtg5UL30Xo-11">
          <mxGeometry relative="1" as="geometry" />
        </mxCell>
        <mxCell id="u0k0_SDsONShJAMM6Eyq-14" value="Подтверждение даты &lt;br&gt;и времени" style="rhombus;whiteSpace=wrap;html=1;" vertex="1" parent="1">
          <mxGeometry x="205" y="610" width="150" height="80" as="geometry" />
        </mxCell>
        <mxCell id="u0k0_SDsONShJAMM6Eyq-18" style="edgeStyle=orthogonalEdgeStyle;rounded=0;orthogonalLoop=1;jettySize=auto;html=1;entryX=0;entryY=0.5;entryDx=0;entryDy=0;" edge="1" parent="1" source="fVKg-VJLoNKtg5UL30Xo-32" target="u0k0_SDsONShJAMM6Eyq-17">
          <mxGeometry relative="1" as="geometry">
            <mxPoint x="1280" y="650" as="sourcePoint" />
          </mxGeometry>
        </mxCell>
        <mxCell id="u0k0_SDsONShJAMM6Eyq-17" value="Стоп" style="ellipse;whiteSpace=wrap;html=1;aspect=fixed;" vertex="1" parent="1">
          <mxGeometry x="1360" y="617.5" width="65" height="65" as="geometry" />
        </mxCell>
        <mxCell id="u0k0_SDsONShJAMM6Eyq-19" value="отменить заказ" style="text;html=1;strokeColor=none;fillColor=none;align=center;verticalAlign=middle;whiteSpace=wrap;rounded=0;" vertex="1" parent="1">
          <mxGeometry x="1230" y="620" width="90" height="30" as="geometry" />
        </mxCell>
        <mxCell id="u0k0_SDsONShJAMM6Eyq-23" value="выбрать другую дату и время" style="text;html=1;align=center;verticalAlign=middle;resizable=0;points=[];autosize=1;strokeColor=none;fillColor=none;" vertex="1" parent="1">
          <mxGeometry x="15" y="620" width="190" height="30" as="geometry" />
        </mxCell>
        <mxCell id="nzRJlls_g9wS-I1lsgUU-1" value="&lt;h1&gt;bot states&lt;/h1&gt;&lt;p&gt;SHOWING_CALENDAR,&lt;br&gt;&lt;span style=&quot;background-color: initial;&quot;&gt;SELECTING_DATE,&lt;br&gt;SELECTING_TIME,&lt;br&gt;&lt;/span&gt;&lt;span style=&quot;background-color: initial;&quot;&gt;DATE_TIME_CONFIRMATION,&lt;br&gt;&lt;/span&gt;&lt;span style=&quot;background-color: initial;&quot;&gt;CHOOSING_EVENT_LOCATION,&lt;br&gt;ADDING_MOBILE_PHONE,&lt;br&gt;ADDING_COMMNENT_OPTIONAL,&lt;br&gt;CREATION_ORDER&lt;/span&gt;&lt;span style=&quot;background-color: initial;&quot;&gt;;&lt;/span&gt;&lt;/p&gt;" style="text;html=1;strokeColor=none;fillColor=none;spacing=5;spacingTop=-20;whiteSpace=wrap;overflow=hidden;rounded=0;" vertex="1" parent="1">
          <mxGeometry x="1180" y="137.5" width="210" height="205" as="geometry" />
        </mxCell>
        <mxCell id="fVKg-VJLoNKtg5UL30Xo-1" value="Выбор времени" style="rounded=1;whiteSpace=wrap;html=1;" vertex="1" parent="1">
          <mxGeometry x="220" y="492" width="120" height="60" as="geometry" />
        </mxCell>
        <mxCell id="fVKg-VJLoNKtg5UL30Xo-4" value="Выбор даты" style="rounded=1;whiteSpace=wrap;html=1;" vertex="1" parent="1">
          <mxGeometry x="220" y="380" width="120" height="60" as="geometry" />
        </mxCell>
        <mxCell id="fVKg-VJLoNKtg5UL30Xo-7" value="&lt;span style=&quot;color: rgb(0, 0, 0); font-family: Helvetica; font-size: 12px; font-style: normal; font-variant-ligatures: normal; font-variant-caps: normal; font-weight: 400; letter-spacing: normal; orphans: 2; text-align: left; text-indent: 0px; text-transform: none; widows: 2; word-spacing: 0px; -webkit-text-stroke-width: 0px; background-color: rgb(251, 251, 251); text-decoration-thickness: initial; text-decoration-style: initial; text-decoration-color: initial; float: none; display: inline !important;&quot;&gt;SHOWING_CALENDAR&lt;/span&gt;" style="text;whiteSpace=wrap;html=1;" vertex="1" parent="1">
          <mxGeometry x="290" y="220" width="170" height="40" as="geometry" />
        </mxCell>
        <mxCell id="fVKg-VJLoNKtg5UL30Xo-8" value="&lt;span style=&quot;color: rgb(0, 0, 0); font-family: Helvetica; font-size: 12px; font-style: normal; font-variant-ligatures: normal; font-variant-caps: normal; font-weight: 400; letter-spacing: normal; orphans: 2; text-align: left; text-indent: 0px; text-transform: none; widows: 2; word-spacing: 0px; -webkit-text-stroke-width: 0px; background-color: rgb(251, 251, 251); text-decoration-thickness: initial; text-decoration-style: initial; text-decoration-color: initial; float: none; display: inline !important;&quot;&gt;SELECTING_DATE&lt;/span&gt;" style="text;whiteSpace=wrap;html=1;" vertex="1" parent="1">
          <mxGeometry x="290" y="340" width="140" height="40" as="geometry" />
        </mxCell>
        <mxCell id="fVKg-VJLoNKtg5UL30Xo-9" value="&lt;span style=&quot;color: rgb(0, 0, 0); font-family: Helvetica; font-size: 12px; font-style: normal; font-variant-ligatures: normal; font-variant-caps: normal; font-weight: 400; letter-spacing: normal; orphans: 2; text-align: left; text-indent: 0px; text-transform: none; widows: 2; word-spacing: 0px; -webkit-text-stroke-width: 0px; background-color: rgb(251, 251, 251); text-decoration-thickness: initial; text-decoration-style: initial; text-decoration-color: initial; float: none; display: inline !important;&quot;&gt;SELECTING_TIME&lt;/span&gt;" style="text;whiteSpace=wrap;html=1;" vertex="1" parent="1">
          <mxGeometry x="290" y="450" width="140" height="40" as="geometry" />
        </mxCell>
        <mxCell id="fVKg-VJLoNKtg5UL30Xo-10" value="&lt;span style=&quot;color: rgb(0, 0, 0); font-family: Helvetica; font-size: 12px; font-style: normal; font-variant-ligatures: normal; font-variant-caps: normal; font-weight: 400; letter-spacing: normal; orphans: 2; text-align: left; text-indent: 0px; text-transform: none; widows: 2; word-spacing: 0px; -webkit-text-stroke-width: 0px; background-color: rgb(251, 251, 251); text-decoration-thickness: initial; text-decoration-style: initial; text-decoration-color: initial; float: none; display: inline !important;&quot;&gt;DATE_TIME_CONFIRMATION&lt;/span&gt;" style="text;whiteSpace=wrap;html=1;" vertex="1" parent="1">
          <mxGeometry x="290" y="565" width="200" height="40" as="geometry" />
        </mxCell>
        <mxCell id="fVKg-VJLoNKtg5UL30Xo-18" value="" style="edgeStyle=orthogonalEdgeStyle;rounded=0;orthogonalLoop=1;jettySize=auto;html=1;" edge="1" parent="1" source="fVKg-VJLoNKtg5UL30Xo-11" target="fVKg-VJLoNKtg5UL30Xo-17">
          <mxGeometry relative="1" as="geometry" />
        </mxCell>
        <mxCell id="fVKg-VJLoNKtg5UL30Xo-11" value="Указание локации проведения мероприятия" style="rounded=1;whiteSpace=wrap;html=1;" vertex="1" parent="1">
          <mxGeometry x="430" y="620" width="120" height="60" as="geometry" />
        </mxCell>
        <mxCell id="fVKg-VJLoNKtg5UL30Xo-14" value="&lt;span style=&quot;color: rgb(0, 0, 0); font-family: Helvetica; font-size: 12px; font-style: normal; font-variant-ligatures: normal; font-variant-caps: normal; font-weight: 400; letter-spacing: normal; orphans: 2; text-align: left; text-indent: 0px; text-transform: none; widows: 2; word-spacing: 0px; -webkit-text-stroke-width: 0px; background-color: rgb(251, 251, 251); text-decoration-thickness: initial; text-decoration-style: initial; text-decoration-color: initial; float: none; display: inline !important;&quot;&gt;CHOOSING_EVENT_LOCATION&lt;/span&gt;" style="text;whiteSpace=wrap;html=1;rotation=270;" vertex="1" parent="1">
          <mxGeometry x="290" y="715" width="220" height="40" as="geometry" />
        </mxCell>
        <mxCell id="fVKg-VJLoNKtg5UL30Xo-15" value="&lt;span style=&quot;color: rgb(0, 0, 0); font-family: Helvetica; font-size: 12px; font-style: normal; font-variant-ligatures: normal; font-variant-caps: normal; font-weight: 400; letter-spacing: normal; orphans: 2; text-align: left; text-indent: 0px; text-transform: none; widows: 2; word-spacing: 0px; -webkit-text-stroke-width: 0px; background-color: rgb(251, 251, 251); text-decoration-thickness: initial; text-decoration-style: initial; text-decoration-color: initial; float: none; display: inline !important;&quot;&gt;SHOWING_CALENDAR&lt;/span&gt;" style="text;whiteSpace=wrap;html=1;" vertex="1" parent="1">
          <mxGeometry x="35" y="650" width="170" height="40" as="geometry" />
        </mxCell>
        <mxCell id="fVKg-VJLoNKtg5UL30Xo-24" style="edgeStyle=orthogonalEdgeStyle;rounded=0;orthogonalLoop=1;jettySize=auto;html=1;" edge="1" parent="1" source="fVKg-VJLoNKtg5UL30Xo-17" target="fVKg-VJLoNKtg5UL30Xo-23">
          <mxGeometry relative="1" as="geometry" />
        </mxCell>
        <mxCell id="fVKg-VJLoNKtg5UL30Xo-17" value="Указание мобильного телефона" style="rounded=1;whiteSpace=wrap;html=1;" vertex="1" parent="1">
          <mxGeometry x="630" y="620" width="120" height="60" as="geometry" />
        </mxCell>
        <mxCell id="fVKg-VJLoNKtg5UL30Xo-19" value="&lt;span style=&quot;color: rgb(0, 0, 0); font-family: Helvetica; font-size: 12px; font-style: normal; font-variant-ligatures: normal; font-variant-caps: normal; font-weight: 400; letter-spacing: normal; orphans: 2; text-align: left; text-indent: 0px; text-transform: none; widows: 2; word-spacing: 0px; -webkit-text-stroke-width: 0px; background-color: rgb(251, 251, 251); text-decoration-thickness: initial; text-decoration-style: initial; text-decoration-color: initial; float: none; display: inline !important;&quot;&gt;ADDING_MOBILE_PHONE&lt;/span&gt;" style="text;whiteSpace=wrap;html=1;rotation=270;" vertex="1" parent="1">
          <mxGeometry x="500" y="707" width="180" height="40" as="geometry" />
        </mxCell>
        <mxCell id="fVKg-VJLoNKtg5UL30Xo-31" style="edgeStyle=orthogonalEdgeStyle;rounded=0;orthogonalLoop=1;jettySize=auto;html=1;entryX=0.5;entryY=0;entryDx=0;entryDy=0;" edge="1" parent="1" source="fVKg-VJLoNKtg5UL30Xo-20" target="fVKg-VJLoNKtg5UL30Xo-32">
          <mxGeometry relative="1" as="geometry">
            <mxPoint x="1120" y="620" as="targetPoint" />
          </mxGeometry>
        </mxCell>
        <mxCell id="fVKg-VJLoNKtg5UL30Xo-20" value="Добавление&lt;br&gt;комментария" style="rounded=1;whiteSpace=wrap;html=1;" vertex="1" parent="1">
          <mxGeometry x="825" y="470" width="120" height="60" as="geometry" />
        </mxCell>
        <mxCell id="fVKg-VJLoNKtg5UL30Xo-25" value="" style="edgeStyle=orthogonalEdgeStyle;rounded=0;orthogonalLoop=1;jettySize=auto;html=1;" edge="1" parent="1" source="fVKg-VJLoNKtg5UL30Xo-23" target="fVKg-VJLoNKtg5UL30Xo-20">
          <mxGeometry relative="1" as="geometry" />
        </mxCell>
        <mxCell id="fVKg-VJLoNKtg5UL30Xo-33" value="" style="edgeStyle=orthogonalEdgeStyle;rounded=0;orthogonalLoop=1;jettySize=auto;html=1;" edge="1" parent="1" source="fVKg-VJLoNKtg5UL30Xo-23" target="fVKg-VJLoNKtg5UL30Xo-32">
          <mxGeometry relative="1" as="geometry" />
        </mxCell>
        <mxCell id="fVKg-VJLoNKtg5UL30Xo-23" value="Добавить &lt;br&gt;комментарий&lt;br&gt;к заказу?" style="rhombus;whiteSpace=wrap;html=1;" vertex="1" parent="1">
          <mxGeometry x="810" y="610" width="150" height="80" as="geometry" />
        </mxCell>
        <mxCell id="fVKg-VJLoNKtg5UL30Xo-26" value="&lt;span style=&quot;color: rgb(0, 0, 0); font-family: Helvetica; font-size: 12px; font-style: normal; font-variant-ligatures: normal; font-variant-caps: normal; font-weight: 400; letter-spacing: normal; orphans: 2; text-align: left; text-indent: 0px; text-transform: none; widows: 2; word-spacing: 0px; -webkit-text-stroke-width: 0px; background-color: rgb(251, 251, 251); text-decoration-thickness: initial; text-decoration-style: initial; text-decoration-color: initial; float: none; display: inline !important;&quot;&gt;ADDING_COMMNENT_OPTIONAL&lt;br&gt;&lt;/span&gt;" style="text;whiteSpace=wrap;html=1;rotation=270;" vertex="1" parent="1">
          <mxGeometry x="670" y="720" width="230" height="40" as="geometry" />
        </mxCell>
        <mxCell id="fVKg-VJLoNKtg5UL30Xo-35" style="edgeStyle=orthogonalEdgeStyle;rounded=0;orthogonalLoop=1;jettySize=auto;html=1;entryX=0.5;entryY=1;entryDx=0;entryDy=0;exitX=0.5;exitY=1;exitDx=0;exitDy=0;" edge="1" parent="1" source="fVKg-VJLoNKtg5UL30Xo-32" target="u0k0_SDsONShJAMM6Eyq-17">
          <mxGeometry relative="1" as="geometry">
            <mxPoint x="1130" y="760" as="targetPoint" />
            <Array as="points">
              <mxPoint x="1125" y="800" />
              <mxPoint x="1392" y="800" />
            </Array>
          </mxGeometry>
        </mxCell>
        <mxCell id="fVKg-VJLoNKtg5UL30Xo-32" value="Подтверждение&lt;br&gt;заказа" style="rhombus;whiteSpace=wrap;html=1;" vertex="1" parent="1">
          <mxGeometry x="1050" y="610" width="150" height="80" as="geometry" />
        </mxCell>
        <mxCell id="fVKg-VJLoNKtg5UL30Xo-36" value="&lt;span style=&quot;border-color: var(--border-color); color: rgb(0, 0, 0); font-family: Helvetica; font-size: 12px; font-style: normal; font-variant-ligatures: normal; font-variant-caps: normal; font-weight: 400; letter-spacing: normal; orphans: 2; text-align: left; text-indent: 0px; text-transform: none; widows: 2; word-spacing: 0px; -webkit-text-stroke-width: 0px; background-color: initial; text-decoration-thickness: initial; text-decoration-style: initial; text-decoration-color: initial;&quot;&gt;CREATION_ORDER&lt;/span&gt;" style="text;whiteSpace=wrap;html=1;" vertex="1" parent="1">
          <mxGeometry x="980" y="470" width="150" height="40" as="geometry" />
        </mxCell>
        <mxCell id="fVKg-VJLoNKtg5UL30Xo-37" value="&lt;span style=&quot;border-color: var(--border-color); color: rgb(0, 0, 0); font-family: Helvetica; font-size: 12px; font-style: normal; font-variant-ligatures: normal; font-variant-caps: normal; font-weight: 400; letter-spacing: normal; orphans: 2; text-align: left; text-indent: 0px; text-transform: none; widows: 2; word-spacing: 0px; -webkit-text-stroke-width: 0px; background-color: initial; text-decoration-thickness: initial; text-decoration-style: initial; text-decoration-color: initial;&quot;&gt;CREATION_ORDER&lt;/span&gt;" style="text;whiteSpace=wrap;html=1;rotation=270;" vertex="1" parent="1">
          <mxGeometry x="940" y="682.5" width="150" height="40" as="geometry" />
        </mxCell>
        <mxCell id="fVKg-VJLoNKtg5UL30Xo-38" value="забронировать" style="text;html=1;align=center;verticalAlign=middle;resizable=0;points=[];autosize=1;strokeColor=none;fillColor=none;" vertex="1" parent="1">
          <mxGeometry x="1200" y="770" width="110" height="30" as="geometry" />
        </mxCell>
      </root>
    </mxGraphModel>
  </diagram>
</mxfile>
